TITLE ""
FILE "DISC1Track12.mp3" MP3
  TRACK 01 AUDIO
    TITLE "DISC1Track12_01"
    INDEX 01 00:00:00
  TRACK 02 AUDIO
    TITLE "DISC1Track12_02"
    INDEX 01 00:02:29
  TRACK 03 AUDIO
    TITLE "DISC1Track12_03"
    INDEX 01 00:02:56
  TRACK 04 AUDIO
    TITLE "DISC1Track12_04"
    INDEX 01 00:05:29
  TRACK 05 AUDIO
    TITLE "DISC1Track12_05"
    INDEX 01 00:07:46
  TRACK 06 AUDIO
    TITLE "DISC1Track12_06"
    INDEX 01 00:09:43
  TRACK 07 AUDIO
    TITLE "DISC1Track12_07"
    INDEX 01 00:09:74
  TRACK 08 AUDIO
    TITLE "DISC1Track12_08"
    INDEX 01 00:13:54
  TRACK 09 AUDIO
    TITLE "DISC1Track12_09"
    INDEX 01 00:16:43
  TRACK 10 AUDIO
    TITLE "DISC1Track12_10"
    INDEX 01 00:19:10
  TRACK 11 AUDIO
    TITLE "DISC1Track12_11"
    INDEX 01 00:19:43
  TRACK 12 AUDIO
    TITLE "DISC1Track12_12"
    INDEX 01 00:22:14
  TRACK 13 AUDIO
    TITLE "DISC1Track12_13"
    INDEX 01 00:24:68
  TRACK 14 AUDIO
    TITLE "DISC1Track12_14"
    INDEX 01 00:27:27
  TRACK 15 AUDIO
    TITLE "DISC1Track12_15"
    INDEX 01 00:27:56
  TRACK 16 AUDIO
    TITLE "DISC1Track12_16"
    INDEX 01 00:30:06
  TRACK 17 AUDIO
    TITLE "DISC1Track12_17"
    INDEX 01 00:32:55
  TRACK 18 AUDIO
    TITLE "DISC1Track12_18"
    INDEX 01 00:35:13
  TRACK 19 AUDIO
    TITLE "DISC1Track12_19"
    INDEX 01 00:35:42
  TRACK 20 AUDIO
    TITLE "DISC1Track12_20"
    INDEX 01 00:37:06
  TRACK 21 AUDIO
    TITLE "DISC1Track12_21"
    INDEX 01 00:38:48
  TRACK 22 AUDIO
    TITLE "DISC1Track12_22"
    INDEX 01 00:40:12
  TRACK 23 AUDIO
    TITLE "DISC1Track12_23"
    INDEX 01 00:40:41
  TRACK 24 AUDIO
    TITLE "DISC1Track12_24"
    INDEX 01 00:43:20
  TRACK 25 AUDIO
    TITLE "DISC1Track12_25"
    INDEX 01 00:45:46
  TRACK 26 AUDIO
    TITLE "DISC1Track12_26"
    INDEX 01 00:47:53
  TRACK 27 AUDIO
    TITLE "DISC1Track12_27"
    INDEX 01 00:48:07
  TRACK 28 AUDIO
    TITLE "DISC1Track12_28"
    INDEX 01 00:49:62
  TRACK 29 AUDIO
    TITLE "DISC1Track12_29"
    INDEX 01 00:52:05
  TRACK 30 AUDIO
    TITLE "DISC1Track12_30"
    INDEX 01 00:54:04
  TRACK 31 AUDIO
    TITLE "DISC1Track12_31"
    INDEX 01 00:54:37
  TRACK 32 AUDIO
    TITLE "DISC1Track12_32"
    INDEX 01 00:56:72
  TRACK 33 AUDIO
    TITLE "DISC1Track12_33"
    INDEX 01 00:59:50
  TRACK 34 AUDIO
    TITLE "DISC1Track12_34"
    INDEX 01 01:02:09
  TRACK 35 AUDIO
    TITLE "DISC1Track12_35"
    INDEX 01 01:02:41
  TRACK 36 AUDIO
    TITLE "DISC1Track12_36"
    INDEX 01 01:06:03
  TRACK 37 AUDIO
    TITLE "DISC1Track12_37"
    INDEX 01 01:08:59
  TRACK 38 AUDIO
    TITLE "DISC1Track12_38"
    INDEX 01 01:11:18
  TRACK 39 AUDIO
    TITLE "DISC1Track12_39"
    INDEX 01 01:11:52
  TRACK 40 AUDIO
    TITLE "DISC1Track12_40"
    INDEX 01 01:14:46
  TRACK 41 AUDIO
    TITLE "DISC1Track12_41"
    INDEX 01 01:17:11
  TRACK 42 AUDIO
    TITLE "DISC1Track12_42"
    INDEX 01 01:19:31
  TRACK 43 AUDIO
    TITLE "DISC1Track12_43"
    INDEX 01 01:19:63
  TRACK 44 AUDIO
    TITLE "DISC1Track12_44"
    INDEX 01 01:23:12
  TRACK 45 AUDIO
    TITLE "DISC1Track12_45"
    INDEX 01 01:26:16
  TRACK 46 AUDIO
    TITLE "DISC1Track12_46"
    INDEX 01 01:29:04
  TRACK 47 AUDIO
    TITLE "DISC1Track12_47"
    INDEX 01 01:29:32
  TRACK 48 AUDIO
    TITLE "DISC1Track12_48"
    INDEX 01 01:32:24
  TRACK 49 AUDIO
    TITLE "DISC1Track12_49"
    INDEX 01 01:35:28
  TRACK 50 AUDIO
    TITLE "DISC1Track12_50"
    INDEX 01 01:38:09
